<?xml version="1.0" encoding="utf-8"?>
<!-- Generator: Adobe Illustrator 19.0.0, SVG Export Plug-In . SVG Version: 6.00 Build 0)  -->
<svg version="1.1" id="Layer_1" xmlns="http://www.w3.org/2000/svg" xmlns:xlink="http://www.w3.org/1999/xlink" x="0px" y="0px"
	 viewBox="-223 25 512 512" style="enable-background:new -223 25 512 512;" xml:space="preserve">
<style type="text/css">
	.st0{fill:#FFFFFF;}
</style>
<path class="st0" d="M166.5,71.8c0-22-17.8-39.8-39.8-39.8H-62.6c-22,0-39.8,17.8-39.8,39.8v418.3c0,22,17.8,39.8,39.8,39.8h189.2
	c22,0,39.8-17.8,39.8-39.8V71.8z M12.2,76.8h39.8c2.8,0,5,2.2,5,5c0,2.7-2.2,5-5,5H12.2c-2.7,0-5-2.2-5-5
	C7.3,79.1,9.5,76.8,12.2,76.8z M30.5,506.4c-11,0-19.9-8.9-19.9-19.9c0-11,8.9-19.9,19.9-19.9c11,0,19.9,8.9,19.9,19.9
	C50.4,497.5,41.5,506.4,30.5,506.4z M141.6,450.3H-77.6V116.7h219.1V450.3z"/>
</svg>
