<?xml version="1.0" encoding="utf-8"?>
<!-- Generator: Adobe Illustrator 19.0.0, SVG Export Plug-In . SVG Version: 6.00 Build 0)  -->
<svg version="1.1" id="Layer_1" xmlns="http://www.w3.org/2000/svg" xmlns:xlink="http://www.w3.org/1999/xlink" x="0px" y="0px"
	 viewBox="-429 219.1 100 100.1" style="enable-background:new -429 219.1 100 100.1;" xml:space="preserve">
<style type="text/css">
	.st0{display:none;fill:#E5E5E5;}
	.st1{fill:#FFFFFF;}
</style>
<rect x="-685.1" y="48.1" class="st0" width="612.3" height="440.8"/>
<g>
	<g>
		<path class="st1" d="M-330.7,233.5c-2.2-5.9-6.8-10.5-12.7-12.7c-5.4-1.7-10.4-1.7-20.5-1.7h-30.2c-10,0-15.1,0-20.5,1.7
			c-5.9,2.2-10.5,6.8-12.7,12.7c-1.7,5.4-1.7,10.4-1.7,20.5v30.3c0,10,0,15.1,1.7,20.5c2.1,5.9,6.8,10.5,12.7,12.7
			c5.4,1.7,10.4,1.7,20.5,1.7h30.3c10,0,15.1,0,20.5-1.7c5.9-2.1,10.5-6.8,12.7-12.7c1.7-5.4,1.7-10.4,1.7-20.5V254
			C-329,243.9-329,238.9-330.7,233.5z M-354,250.7h-18.4v52.6h-13.2v-52.6H-404v-13.2h50V250.7z"/>
	</g>
</g>
</svg>
