<?xml version="1.0" encoding="utf-8"?>
<!-- Generator: Adobe Illustrator 18.1.0, SVG Export Plug-In . SVG Version: 6.00 Build 0)  -->
<!DOCTYPE svg PUBLIC "-//W3C//DTD SVG 1.1//EN" "http://www.w3.org/Graphics/SVG/1.1/DTD/svg11.dtd">
<svg version="1.1" id="Layer_1" xmlns="http://www.w3.org/2000/svg" xmlns:xlink="http://www.w3.org/1999/xlink" x="0px" y="0px"
	 viewBox="0 0 100 100" enable-background="new 0 0 100 100" xml:space="preserve">
<rect x="-256.1" y="-171" display="none" fill="#E5E5E5" width="612.3" height="440.8"/>
<g>
	<g>
		<path fill="#FFFFFF" d="M98.3,14.4C96.1,8.5,91.5,3.9,85.6,1.7C80.2,0,75.2,0,65.1,0H34.9c-10,0-15.1,0-20.5,1.7
			C8.5,3.9,3.9,8.5,1.7,14.4C0,19.8,0,24.8,0,34.9v30.3c0,10,0,15.1,1.7,20.5c2.1,5.9,6.8,10.5,12.7,12.7c5.4,1.7,10.4,1.7,20.5,1.7
			h30.3c10,0,15.1,0,20.5-1.7c5.9-2.1,10.5-6.8,12.7-12.7c1.7-5.4,1.7-10.4,1.7-20.5V34.9C100,24.8,100,19.8,98.3,14.4z M75,31.6
			H56.6v52.6H43.4V31.6H25V18.4h50V31.6z"/>
	</g>
</g>
<g display="none">
	<path display="inline" fill="#FFFFFF" d="M4,123.7V114H0.5v-1.2h8.3v1.2H5.3v9.7H4z"/>
	<path display="inline" fill="#FFFFFF" d="M8.2,119.8c0-2.3,1.5-4.1,3.9-4.1s3.9,1.8,3.9,4.1c0,2.3-1.5,4.1-3.9,4.1
		S8.2,122.1,8.2,119.8z M14.7,119.8c0-1.6-0.9-3-2.6-3s-2.6,1.4-2.6,3c0,1.6,0.9,3,2.6,3S14.7,121.4,14.7,119.8z"/>
	<path display="inline" fill="#FFFFFF" d="M23.3,123.7v-1.1c-0.6,0.7-1.6,1.3-2.8,1.3c-1.6,0-2.5-0.8-2.5-2.5v-5.6h1.2v5.2
		c0,1.4,0.7,1.8,1.8,1.8c0.9,0,1.9-0.6,2.3-1.2v-5.8h1.2v7.9H23.3z"/>
	<path display="inline" fill="#FFFFFF" d="M26.5,119.8c0-2.3,1.6-4.1,3.9-4.1c1.4,0,2.3,0.6,2.9,1.4l-0.8,0.7c-0.5-0.7-1.2-1-2-1
		c-1.7,0-2.7,1.3-2.7,3s1.1,3,2.7,3c0.8,0,1.5-0.3,2-1l0.8,0.8c-0.6,0.8-1.5,1.4-2.9,1.4C28.1,123.9,26.5,122.1,26.5,119.8z"/>
	<path display="inline" fill="#FFFFFF" d="M40.4,123.7v-5.2c0-1.4-0.7-1.8-1.8-1.8c-0.9,0-1.9,0.6-2.3,1.2v5.8h-1.2v-10.9h1.2v4.1
		c0.5-0.7,1.6-1.3,2.8-1.3c1.6,0,2.5,0.8,2.5,2.5v5.6H40.4z"/>
	<path display="inline" fill="#FFFFFF" d="M43.4,122.7l0.6-0.9c0.5,0.6,1.5,1.1,2.6,1.1c1.2,0,1.9-0.6,1.9-1.4
		c0-1.9-4.9-0.7-4.9-3.7c0-1.2,1-2.3,2.9-2.3c1.4,0,2.3,0.5,2.9,1.1l-0.6,0.8c-0.5-0.6-1.3-1-2.3-1c-1.1,0-1.7,0.5-1.7,1.2
		c0,1.7,4.9,0.6,4.9,3.7c0,1.3-1.1,2.4-3.1,2.4C45.2,123.9,44.2,123.5,43.4,122.7z"/>
	<path display="inline" fill="#FFFFFF" d="M51.9,122.1v-5.2h-1.3v-1.1h1.3v-2.2h1.2v2.2h1.6v1.1h-1.6v4.9c0,0.6,0.3,1,0.8,1
		c0.4,0,0.7-0.2,0.8-0.3l0.4,0.9c-0.3,0.3-0.8,0.5-1.5,0.5C52.5,123.9,51.9,123.3,51.9,122.1z"/>
	<path display="inline" fill="#FFFFFF" d="M56,119.8c0-2.3,1.5-4.1,3.9-4.1s3.9,1.8,3.9,4.1c0,2.3-1.5,4.1-3.9,4.1
		S56,122.1,56,119.8z M62.5,119.8c0-1.6-0.9-3-2.6-3c-1.7,0-2.6,1.4-2.6,3c0,1.6,0.9,3,2.6,3C61.5,122.8,62.5,121.4,62.5,119.8z"/>
	<path display="inline" fill="#FFFFFF" d="M71.1,123.7v-5.2c0-1.4-0.7-1.8-1.8-1.8c-1,0-1.9,0.6-2.3,1.2v5.8h-1.2v-7.9H67v1.1
		c0.6-0.7,1.6-1.3,2.8-1.3c1.6,0,2.5,0.8,2.5,2.5v5.5H71.1z"/>
	<path display="inline" fill="#FFFFFF" d="M74.3,119.8c0-2.3,1.6-4.1,3.9-4.1c2.4,0,3.8,1.9,3.8,4.2v0.3h-6.4
		c0.1,1.5,1.1,2.7,2.8,2.7c0.9,0,1.8-0.4,2.4-1l0.6,0.8c-0.8,0.8-1.9,1.2-3.1,1.2C76,123.9,74.3,122.2,74.3,119.8z M78.2,116.7
		c-1.7,0-2.5,1.4-2.6,2.6h5.2C80.7,118.1,79.9,116.7,78.2,116.7z"/>
	<path display="inline" fill="#FFFFFF" d="M82.9,122.7l0.7-1c0.5,0.6,1.1,1.1,2,1.1c1.3,0,2.2-0.9,2.2-2.3v-7.6h1.4v7.6
		c0,2.3-1.5,3.5-3.5,3.5C84.6,123.9,83.6,123.5,82.9,122.7z"/>
	<path display="inline" fill="#FFFFFF" d="M91.1,122.2l0.8-1c0.7,0.8,1.9,1.6,3.4,1.6c1.9,0,2.6-1,2.6-1.9c0-2.8-6.4-1.2-6.4-5.1
		c0-1.8,1.6-3,3.8-3c1.6,0,2.9,0.6,3.8,1.5l-0.8,1c-0.8-0.9-2-1.3-3.1-1.3c-1.3,0-2.2,0.7-2.2,1.7c0,2.4,6.4,1,6.4,5.1
		c0,1.6-1.1,3.2-4,3.2C93.4,123.9,92,123.2,91.1,122.2z"/>
</g>
<g>
</g>
<g>
</g>
<g>
</g>
<g>
</g>
<g>
</g>
<g>
</g>
</svg>
