<?xml version="1.0" encoding="utf-8"?>
<!-- Generator: Adobe Illustrator 19.0.0, SVG Export Plug-In . SVG Version: 6.00 Build 0)  -->
<svg version="1.1"
	 id="svg2" xmlns:inkscape="http://www.inkscape.org/namespaces/inkscape" xmlns:svg="http://www.w3.org/2000/svg" xmlns:dc="http://purl.org/dc/elements/1.1/" xmlns:sodipodi="http://sodipodi.sourceforge.net/DTD/sodipodi-0.dtd" xmlns:rdf="http://www.w3.org/1999/02/22-rdf-syntax-ns#" xmlns:cc="http://creativecommons.org/ns#" sodipodi:docname="Twitter_bird_logo_2012.svg" inkscape:version="0.48.4 r9939"
	 xmlns="http://www.w3.org/2000/svg" xmlns:xlink="http://www.w3.org/1999/xlink" x="0px" y="0px" viewBox="-393 195.6 171.5 171.5"
	 style="enable-background:new -393 195.6 171.5 171.5;" xml:space="preserve">
<style type="text/css">
	.st0{fill:#FFFFFF;}
</style>
<sodipodi:namedview  id="base" bordercolor="#ffffff" fit-margin-top="0" inkscape:cx="101.29413" showgrid="false" inkscape:cy="50.181142" borderopacity="1.0" inkscape:zoom="3.7200571" fit-margin-left="0" pagecolor="#ffffff" fit-margin-bottom="0" fit-margin-right="0" inkscape:window-width="1280" inkscape:window-maximized="1" inkscape:pageshadow="2" inkscape:pageopacity="0.0" inkscape:window-y="-8" inkscape:window-x="-8" inkscape:window-height="962" inkscape:current-layer="layer1" inkscape:document-units="px">
	</sodipodi:namedview>
<g id="layer1" transform="translate(-282.32053,-396.30734)" inkscape:label="Layer 1" inkscape:groupmode="layer">
	<path id="path5" inkscape:connector-curvature="0" class="st0" d="M60.8,624.4c-6.3,2.8-13.1,4.7-20.2,5.5
		c7.3-4.4,12.8-11.2,15.5-19.5c-6.8,4-14.3,7-22.3,8.5c-6.4-6.8-15.6-11.1-25.7-11.1c-19.4,0-35.2,15.8-35.2,35.2
		c0,2.8,0.3,5.4,0.9,8c-29.2-1.5-55.2-15.5-72.5-36.8c-3,5.2-4.8,11.2-4.8,17.7c0,12.2,6.2,23,15.7,29.3c-5.8-0.2-11.2-1.8-15.9-4.4
		c0,0.1,0,0.3,0,0.4c0,17,12.1,31.3,28.2,34.5c-3,0.8-6.1,1.2-9.3,1.2c-2.3,0-4.5-0.2-6.6-0.6c4.5,14,17.5,24.2,32.9,24.4
		c-12,9.4-27.2,15.1-43.7,15.1c-2.8,0-5.6-0.2-8.4-0.5c15.6,10,34.1,15.8,53.9,15.8c64.7,0,100.1-53.6,100.1-100.1
		c0-1.5,0-3-0.1-4.6C50.1,637.7,56.1,631.5,60.8,624.4L60.8,624.4z"/>
</g>
</svg>
